#usda 1.0

def Xform "Cubes"
{
    def Cube "Cube_0"
    {
        custom double size = 0.10000000149011612
        custom matrix4d xformOp:transform = ((1.0, 0.0, 0.0, 0.0), (0.0, 1.0, 0.0, 0.0), (0.0, 0.0, 1.0, 0.0), (0.0, 0.0, 0.0, 1.0))
        custom token[] xformOpOrder = ["xformOp:transform"]
    }
    def Cube "Cube_1"
    {
        custom double size = 0.10000000149011612
        custom matrix4d xformOp:transform = ((1.0, 0.0, 0.0, 0.0), (0.0, 1.0, 0.0, 0.0), (0.0, 0.0, 1.0, 0.0), (0.0, 0.20000000298023224, 0.0, 1.0))
        custom token[] xformOpOrder = ["xformOp:transform"]
    }
    def Cube "Cube_2"
    {
        custom double size = 0.10000000149011612
        custom matrix4d xformOp:transform = ((1.0, 0.0, 0.0, 0.0), (0.0, 1.0, 0.0, 0.0), (0.0, 0.0, 1.0, 0.0), (0.0, 0.4000000059604645, 0.0, 1.0))
        custom token[] xformOpOrder = ["xformOp:transform"]
    }
    def Cube "Cube_3"
    {
        custom double size = 0.10000000149011612
        custom matrix4d xformOp:transform = ((1.0, 0.0, 0.0, 0.0), (0.0, 1.0, 0.0, 0.0), (0.0, 0.0, 1.0, 0.0), (0.0, 0.6000000238418579, 0.0, 1.0))
        custom token[] xformOpOrder = ["xformOp:transform"]
    }
    def Cube "Cube_4"
    {
        custom double size = 0.10000000149011612
        custom matrix4d xformOp:transform = ((1.0, 0.0, 0.0, 0.0), (0.0, 1.0, 0.0, 0.0), (0.0, 0.0, 1.0, 0.0), (0.0, 0.800000011920929, 0.0, 1.0))
        custom token[] xformOpOrder = ["xformOp:transform"]
    }
    def Cube "Cube_5"
    {
        custom double size = 0.10000000149011612
        custom matrix4d xformOp:transform = ((1.0, 0.0, 0.0, 0.0), (0.0, 1.0, 0.0, 0.0), (0.0, 0.0, 1.0, 0.0), (0.0, 1.0, 0.0, 1.0))
        custom token[] xformOpOrder = ["xformOp:transform"]
    }
    def Cube "Cube_6"
    {
        custom double size = 0.10000000149011612
        custom matrix4d xformOp:transform = ((1.0, 0.0, 0.0, 0.0), (0.0, 1.0, 0.0, 0.0), (0.0, 0.0, 1.0, 0.0), (0.0, 1.2000000476837158, 0.0, 1.0))
        custom token[] xformOpOrder = ["xformOp:transform"]
    }
    def Cube "Cube_7"
    {
        custom double size = 0.10000000149011612
        custom matrix4d xformOp:transform = ((1.0, 0.0, 0.0, 0.0), (0.0, 1.0, 0.0, 0.0), (0.0, 0.0, 1.0, 0.0), (0.0, 1.399999976158142, 0.0, 1.0))
        custom token[] xformOpOrder = ["xformOp:transform"]
    }
    def Cube "Cube_8"
    {
        custom double size = 0.10000000149011612
        custom matrix4d xformOp:transform = ((1.0, 0.0, 0.0, 0.0), (0.0, 1.0, 0.0, 0.0), (0.0, 0.0, 1.0, 0.0), (0.0, 1.600000023841858, 0.0, 1.0))
        custom token[] xformOpOrder = ["xformOp:transform"]
    }
    def Cube "Cube_9"
    {
        custom double size = 0.10000000149011612
        custom matrix4d xformOp:transform = ((1.0, 0.0, 0.0, 0.0), (0.0, 1.0, 0.0, 0.0), (0.0, 0.0, 1.0, 0.0), (0.0, 1.8000000715255737, 0.0, 1.0))
        custom token[] xformOpOrder = ["xformOp:transform"]
    }
    def Cube "Cube_10"
    {
        custom double size = 0.10000000149011612
        custom matrix4d xformOp:transform = ((1.0, 0.0, 0.0, 0.0), (0.0, 1.0, 0.0, 0.0), (0.0, 0.0, 1.0, 0.0), (0.20000000298023224, 0.0, 0.0, 1.0))
        custom token[] xformOpOrder = ["xformOp:transform"]
    }
    def Cube "Cube_11"
    {
        custom double size = 0.10000000149011612
        custom matrix4d xformOp:transform = ((1.0, 0.0, 0.0, 0.0), (0.0, 1.0, 0.0, 0.0), (0.0, 0.0, 1.0, 0.0), (0.20000000298023224, 0.20000000298023224, 0.0, 1.0))
        custom token[] xformOpOrder = ["xformOp:transform"]
    }
    def Cube "Cube_12"
    {
        custom double size = 0.10000000149011612
        custom matrix4d xformOp:transform = ((1.0, 0.0, 0.0, 0.0), (0.0, 1.0, 0.0, 0.0), (0.0, 0.0, 1.0, 0.0), (0.20000000298023224, 0.4000000059604645, 0.0, 1.0))
        custom token[] xformOpOrder = ["xformOp:transform"]
    }
    def Cube "Cube_13"
    {
        custom double size = 0.10000000149011612
        custom matrix4d xformOp:transform = ((1.0, 0.0, 0.0, 0.0), (0.0, 1.0, 0.0, 0.0), (0.0, 0.0, 1.0, 0.0), (0.20000000298023224, 0.6000000238418579, 0.0, 1.0))
        custom token[] xformOpOrder = ["xformOp:transform"]
    }
    def Cube "Cube_14"
    {
        custom double size = 0.10000000149011612
        custom matrix4d xformOp:transform = ((1.0, 0.0, 0.0, 0.0), (0.0, 1.0, 0.0, 0.0), (0.0, 0.0, 1.0, 0.0), (0.20000000298023224, 0.800000011920929, 0.0, 1.0))
        custom token[] xformOpOrder = ["xformOp:transform"]
    }
    def Cube "Cube_15"
    {
        custom double size = 0.10000000149011612
        custom matrix4d xformOp:transform = ((1.0, 0.0, 0.0, 0.0), (0.0, 1.0, 0.0, 0.0), (0.0, 0.0, 1.0, 0.0), (0.20000000298023224, 1.0, 0.0, 1.0))
        custom token[] xformOpOrder = ["xformOp:transform"]
    }
    def Cube "Cube_16"
    {
        custom double size = 0.10000000149011612
        custom matrix4d xformOp:transform = ((1.0, 0.0, 0.0, 0.0), (0.0, 1.0, 0.0, 0.0), (0.0, 0.0, 1.0, 0.0), (0.20000000298023224, 1.2000000476837158, 0.0, 1.0))
        custom token[] xformOpOrder = ["xformOp:transform"]
    }
    def Cube "Cube_17"
    {
        custom double size = 0.10000000149011612
        custom matrix4d xformOp:transform = ((1.0, 0.0, 0.0, 0.0), (0.0, 1.0, 0.0, 0.0), (0.0, 0.0, 1.0, 0.0), (0.20000000298023224, 1.399999976158142, 0.0, 1.0))
        custom token[] xformOpOrder = ["xformOp:transform"]
    }
    def Cube "Cube_18"
    {
        custom double size = 0.10000000149011612
        custom matrix4d xformOp:transform = ((1.0, 0.0, 0.0, 0.0), (0.0, 1.0, 0.0, 0.0), (0.0, 0.0, 1.0, 0.0), (0.20000000298023224, 1.600000023841858, 0.0, 1.0))
        custom token[] xformOpOrder = ["xformOp:transform"]
    }
    def Cube "Cube_19"
    {
        custom double size = 0.10000000149011612
        custom matrix4d xformOp:transform = ((1.0, 0.0, 0.0, 0.0), (0.0, 1.0, 0.0, 0.0), (0.0, 0.0, 1.0, 0.0), (0.20000000298023224, 1.8000000715255737, 0.0, 1.0))
        custom token[] xformOpOrder = ["xformOp:transform"]
    }
    def Cube "Cube_20"
    {
        custom double size = 0.10000000149011612
        custom matrix4d xformOp:transform = ((1.0, 0.0, 0.0, 0.0), (0.0, 1.0, 0.0, 0.0), (0.0, 0.0, 1.0, 0.0), (0.4000000059604645, 0.0, 0.0, 1.0))
        custom token[] xformOpOrder = ["xformOp:transform"]
    }
    def Cube "Cube_21"
    {
        custom double size = 0.10000000149011612
        custom matrix4d xformOp:transform = ((1.0, 0.0, 0.0, 0.0), (0.0, 1.0, 0.0, 0.0), (0.0, 0.0, 1.0, 0.0), (0.4000000059604645, 0.20000000298023224, 0.0, 1.0))
        custom token[] xformOpOrder = ["xformOp:transform"]
    }
    def Cube "Cube_22"
    {
        custom double size = 0.10000000149011612
        custom matrix4d xformOp:transform = ((1.0, 0.0, 0.0, 0.0), (0.0, 1.0, 0.0, 0.0), (0.0, 0.0, 1.0, 0.0), (0.4000000059604645, 0.4000000059604645, 0.0, 1.0))
        custom token[] xformOpOrder = ["xformOp:transform"]
    }
    def Cube "Cube_23"
    {
        custom double size = 0.10000000149011612
        custom matrix4d xformOp:transform = ((1.0, 0.0, 0.0, 0.0), (0.0, 1.0, 0.0, 0.0), (0.0, 0.0, 1.0, 0.0), (0.4000000059604645, 0.6000000238418579, 0.0, 1.0))
        custom token[] xformOpOrder = ["xformOp:transform"]
    }
    def Cube "Cube_24"
    {
        custom double size = 0.10000000149011612
        custom matrix4d xformOp:transform = ((1.0, 0.0, 0.0, 0.0), (0.0, 1.0, 0.0, 0.0), (0.0, 0.0, 1.0, 0.0), (0.4000000059604645, 0.800000011920929, 0.0, 1.0))
        custom token[] xformOpOrder = ["xformOp:transform"]
    }
    def Cube "Cube_25"
    {
        custom double size = 0.10000000149011612
        custom matrix4d xformOp:transform = ((1.0, 0.0, 0.0, 0.0), (0.0, 1.0, 0.0, 0.0), (0.0, 0.0, 1.0, 0.0), (0.4000000059604645, 1.0, 0.0, 1.0))
        custom token[] xformOpOrder = ["xformOp:transform"]
    }
    def Cube "Cube_26"
    {
        custom double size = 0.10000000149011612
        custom matrix4d xformOp:transform = ((1.0, 0.0, 0.0, 0.0), (0.0, 1.0, 0.0, 0.0), (0.0, 0.0, 1.0, 0.0), (0.4000000059604645, 1.2000000476837158, 0.0, 1.0))
        custom token[] xformOpOrder = ["xformOp:transform"]
    }
    def Cube "Cube_27"
    {
        custom double size = 0.10000000149011612
        custom matrix4d xformOp:transform = ((1.0, 0.0, 0.0, 0.0), (0.0, 1.0, 0.0, 0.0), (0.0, 0.0, 1.0, 0.0), (0.4000000059604645, 1.399999976158142, 0.0, 1.0))
        custom token[] xformOpOrder = ["xformOp:transform"]
    }
    def Cube "Cube_28"
    {
        custom double size = 0.10000000149011612
        custom matrix4d xformOp:transform = ((1.0, 0.0, 0.0, 0.0), (0.0, 1.0, 0.0, 0.0), (0.0, 0.0, 1.0, 0.0), (0.4000000059604645, 1.600000023841858, 0.0, 1.0))
        custom token[] xformOpOrder = ["xformOp:transform"]
    }
    def Cube "Cube_29"
    {
        custom double size = 0.10000000149011612
        custom matrix4d xformOp:transform = ((1.0, 0.0, 0.0, 0.0), (0.0, 1.0, 0.0, 0.0), (0.0, 0.0, 1.0, 0.0), (0.4000000059604645, 1.8000000715255737, 0.0, 1.0))
        custom token[] xformOpOrder = ["xformOp:transform"]
    }
    def Cube "Cube_30"
    {
        custom double size = 0.10000000149011612
        custom matrix4d xformOp:transform = ((1.0, 0.0, 0.0, 0.0), (0.0, 1.0, 0.0, 0.0), (0.0, 0.0, 1.0, 0.0), (0.6000000238418579, 0.0, 0.0, 1.0))
        custom token[] xformOpOrder = ["xformOp:transform"]
    }
    def Cube "Cube_31"
    {
        custom double size = 0.10000000149011612
        custom matrix4d xformOp:transform = ((1.0, 0.0, 0.0, 0.0), (0.0, 1.0, 0.0, 0.0), (0.0, 0.0, 1.0, 0.0), (0.6000000238418579, 0.20000000298023224, 0.0, 1.0))
        custom token[] xformOpOrder = ["xformOp:transform"]
    }
    def Cube "Cube_32"
    {
        custom double size = 0.10000000149011612
        custom matrix4d xformOp:transform = ((1.0, 0.0, 0.0, 0.0), (0.0, 1.0, 0.0, 0.0), (0.0, 0.0, 1.0, 0.0), (0.6000000238418579, 0.4000000059604645, 0.0, 1.0))
        custom token[] xformOpOrder = ["xformOp:transform"]
    }
    def Cube "Cube_33"
    {
        custom double size = 0.10000000149011612
        custom matrix4d xformOp:transform = ((1.0, 0.0, 0.0, 0.0), (0.0, 1.0, 0.0, 0.0), (0.0, 0.0, 1.0, 0.0), (0.6000000238418579, 0.6000000238418579, 0.0, 1.0))
        custom token[] xformOpOrder = ["xformOp:transform"]
    }
    def Cube "Cube_34"
    {
        custom double size = 0.10000000149011612
        custom matrix4d xformOp:transform = ((1.0, 0.0, 0.0, 0.0), (0.0, 1.0, 0.0, 0.0), (0.0, 0.0, 1.0, 0.0), (0.6000000238418579, 0.800000011920929, 0.0, 1.0))
        custom token[] xformOpOrder = ["xformOp:transform"]
    }
    def Cube "Cube_35"
    {
        custom double size = 0.10000000149011612
        custom matrix4d xformOp:transform = ((1.0, 0.0, 0.0, 0.0), (0.0, 1.0, 0.0, 0.0), (0.0, 0.0, 1.0, 0.0), (0.6000000238418579, 1.0, 0.0, 1.0))
        custom token[] xformOpOrder = ["xformOp:transform"]
    }
    def Cube "Cube_36"
    {
        custom double size = 0.10000000149011612
        custom matrix4d xformOp:transform = ((1.0, 0.0, 0.0, 0.0), (0.0, 1.0, 0.0, 0.0), (0.0, 0.0, 1.0, 0.0), (0.6000000238418579, 1.2000000476837158, 0.0, 1.0))
        custom token[] xformOpOrder = ["xformOp:transform"]
    }
    def Cube "Cube_37"
    {
        custom double size = 0.10000000149011612
        custom matrix4d xformOp:transform = ((1.0, 0.0, 0.0, 0.0), (0.0, 1.0, 0.0, 0.0), (0.0, 0.0, 1.0, 0.0), (0.6000000238418579, 1.399999976158142, 0.0, 1.0))
        custom token[] xformOpOrder = ["xformOp:transform"]
    }
    def Cube "Cube_38"
    {
        custom double size = 0.10000000149011612
        custom matrix4d xformOp:transform = ((1.0, 0.0, 0.0, 0.0), (0.0, 1.0, 0.0, 0.0), (0.0, 0.0, 1.0, 0.0), (0.6000000238418579, 1.600000023841858, 0.0, 1.0))
        custom token[] xformOpOrder = ["xformOp:transform"]
    }
    def Cube "Cube_39"
    {
        custom double size = 0.10000000149011612
        custom matrix4d xformOp:transform = ((1.0, 0.0, 0.0, 0.0), (0.0, 1.0, 0.0, 0.0), (0.0, 0.0, 1.0, 0.0), (0.6000000238418579, 1.8000000715255737, 0.0, 1.0))
        custom token[] xformOpOrder = ["xformOp:transform"]
    }
    def Cube "Cube_40"
    {
        custom double size = 0.10000000149011612
        custom matrix4d xformOp:transform = ((1.0, 0.0, 0.0, 0.0), (0.0, 1.0, 0.0, 0.0), (0.0, 0.0, 1.0, 0.0), (0.800000011920929, 0.0, 0.0, 1.0))
        custom token[] xformOpOrder = ["xformOp:transform"]
    }
    def Cube "Cube_41"
    {
        custom double size = 0.10000000149011612
        custom matrix4d xformOp:transform = ((1.0, 0.0, 0.0, 0.0), (0.0, 1.0, 0.0, 0.0), (0.0, 0.0, 1.0, 0.0), (0.800000011920929, 0.20000000298023224, 0.0, 1.0))
        custom token[] xformOpOrder = ["xformOp:transform"]
    }
    def Cube "Cube_42"
    {
        custom double size = 0.10000000149011612
        custom matrix4d xformOp:transform = ((1.0, 0.0, 0.0, 0.0), (0.0, 1.0, 0.0, 0.0), (0.0, 0.0, 1.0, 0.0), (0.800000011920929, 0.4000000059604645, 0.0, 1.0))
        custom token[] xformOpOrder = ["xformOp:transform"]
    }
    def Cube "Cube_43"
    {
        custom double size = 0.10000000149011612
        custom matrix4d xformOp:transform = ((1.0, 0.0, 0.0, 0.0), (0.0, 1.0, 0.0, 0.0), (0.0, 0.0, 1.0, 0.0), (0.800000011920929, 0.6000000238418579, 0.0, 1.0))
        custom token[] xformOpOrder = ["xformOp:transform"]
    }
    def Cube "Cube_44"
    {
        custom double size = 0.10000000149011612
        custom matrix4d xformOp:transform = ((1.0, 0.0, 0.0, 0.0), (0.0, 1.0, 0.0, 0.0), (0.0, 0.0, 1.0, 0.0), (0.800000011920929, 0.800000011920929, 0.0, 1.0))
        custom token[] xformOpOrder = ["xformOp:transform"]
    }
    def Cube "Cube_45"
    {
        custom double size = 0.10000000149011612
        custom matrix4d xformOp:transform = ((1.0, 0.0, 0.0, 0.0), (0.0, 1.0, 0.0, 0.0), (0.0, 0.0, 1.0, 0.0), (0.800000011920929, 1.0, 0.0, 1.0))
        custom token[] xformOpOrder = ["xformOp:transform"]
    }
    def Cube "Cube_46"
    {
        custom double size = 0.10000000149011612
        custom matrix4d xformOp:transform = ((1.0, 0.0, 0.0, 0.0), (0.0, 1.0, 0.0, 0.0), (0.0, 0.0, 1.0, 0.0), (0.800000011920929, 1.2000000476837158, 0.0, 1.0))
        custom token[] xformOpOrder = ["xformOp:transform"]
    }
    def Cube "Cube_47"
    {
        custom double size = 0.10000000149011612
        custom matrix4d xformOp:transform = ((1.0, 0.0, 0.0, 0.0), (0.0, 1.0, 0.0, 0.0), (0.0, 0.0, 1.0, 0.0), (0.800000011920929, 1.399999976158142, 0.0, 1.0))
        custom token[] xformOpOrder = ["xformOp:transform"]
    }
    def Cube "Cube_48"
    {
        custom double size = 0.10000000149011612
        custom matrix4d xformOp:transform = ((1.0, 0.0, 0.0, 0.0), (0.0, 1.0, 0.0, 0.0), (0.0, 0.0, 1.0, 0.0), (0.800000011920929, 1.600000023841858, 0.0, 1.0))
        custom token[] xformOpOrder = ["xformOp:transform"]
    }
    def Cube "Cube_49"
    {
        custom double size = 0.10000000149011612
        custom matrix4d xformOp:transform = ((1.0, 0.0, 0.0, 0.0), (0.0, 1.0, 0.0, 0.0), (0.0, 0.0, 1.0, 0.0), (0.800000011920929, 1.8000000715255737, 0.0, 1.0))
        custom token[] xformOpOrder = ["xformOp:transform"]
    }
    def Cube "Cube_50"
    {
        custom double size = 0.10000000149011612
        custom matrix4d xformOp:transform = ((1.0, 0.0, 0.0, 0.0), (0.0, 1.0, 0.0, 0.0), (0.0, 0.0, 1.0, 0.0), (1.0, 0.0, 0.0, 1.0))
        custom token[] xformOpOrder = ["xformOp:transform"]
    }
    def Cube "Cube_51"
    {
        custom double size = 0.10000000149011612
        custom matrix4d xformOp:transform = ((1.0, 0.0, 0.0, 0.0), (0.0, 1.0, 0.0, 0.0), (0.0, 0.0, 1.0, 0.0), (1.0, 0.20000000298023224, 0.0, 1.0))
        custom token[] xformOpOrder = ["xformOp:transform"]
    }
    def Cube "Cube_52"
    {
        custom double size = 0.10000000149011612
        custom matrix4d xformOp:transform = ((1.0, 0.0, 0.0, 0.0), (0.0, 1.0, 0.0, 0.0), (0.0, 0.0, 1.0, 0.0), (1.0, 0.4000000059604645, 0.0, 1.0))
        custom token[] xformOpOrder = ["xformOp:transform"]
    }
    def Cube "Cube_53"
    {
        custom double size = 0.10000000149011612
        custom matrix4d xformOp:transform = ((1.0, 0.0, 0.0, 0.0), (0.0, 1.0, 0.0, 0.0), (0.0, 0.0, 1.0, 0.0), (1.0, 0.6000000238418579, 0.0, 1.0))
        custom token[] xformOpOrder = ["xformOp:transform"]
    }
    def Cube "Cube_54"
    {
        custom double size = 0.10000000149011612
        custom matrix4d xformOp:transform = ((1.0, 0.0, 0.0, 0.0), (0.0, 1.0, 0.0, 0.0), (0.0, 0.0, 1.0, 0.0), (1.0, 0.800000011920929, 0.0, 1.0))
        custom token[] xformOpOrder = ["xformOp:transform"]
    }
    def Cube "Cube_55"
    {
        custom double size = 0.10000000149011612
        custom matrix4d xformOp:transform = ((1.0, 0.0, 0.0, 0.0), (0.0, 1.0, 0.0, 0.0), (0.0, 0.0, 1.0, 0.0), (1.0, 1.0, 0.0, 1.0))
        custom token[] xformOpOrder = ["xformOp:transform"]
    }
    def Cube "Cube_56"
    {
        custom double size = 0.10000000149011612
        custom matrix4d xformOp:transform = ((1.0, 0.0, 0.0, 0.0), (0.0, 1.0, 0.0, 0.0), (0.0, 0.0, 1.0, 0.0), (1.0, 1.2000000476837158, 0.0, 1.0))
        custom token[] xformOpOrder = ["xformOp:transform"]
    }
    def Cube "Cube_57"
    {
        custom double size = 0.10000000149011612
        custom matrix4d xformOp:transform = ((1.0, 0.0, 0.0, 0.0), (0.0, 1.0, 0.0, 0.0), (0.0, 0.0, 1.0, 0.0), (1.0, 1.399999976158142, 0.0, 1.0))
        custom token[] xformOpOrder = ["xformOp:transform"]
    }
    def Cube "Cube_58"
    {
        custom double size = 0.10000000149011612
        custom matrix4d xformOp:transform = ((1.0, 0.0, 0.0, 0.0), (0.0, 1.0, 0.0, 0.0), (0.0, 0.0, 1.0, 0.0), (1.0, 1.600000023841858, 0.0, 1.0))
        custom token[] xformOpOrder = ["xformOp:transform"]
    }
    def Cube "Cube_59"
    {
        custom double size = 0.10000000149011612
        custom matrix4d xformOp:transform = ((1.0, 0.0, 0.0, 0.0), (0.0, 1.0, 0.0, 0.0), (0.0, 0.0, 1.0, 0.0), (1.0, 1.8000000715255737, 0.0, 1.0))
        custom token[] xformOpOrder = ["xformOp:transform"]
    }
    def Cube "Cube_60"
    {
        custom double size = 0.10000000149011612
        custom matrix4d xformOp:transform = ((1.0, 0.0, 0.0, 0.0), (0.0, 1.0, 0.0, 0.0), (0.0, 0.0, 1.0, 0.0), (1.2000000476837158, 0.0, 0.0, 1.0))
        custom token[] xformOpOrder = ["xformOp:transform"]
    }
    def Cube "Cube_61"
    {
        custom double size = 0.10000000149011612
        custom matrix4d xformOp:transform = ((1.0, 0.0, 0.0, 0.0), (0.0, 1.0, 0.0, 0.0), (0.0, 0.0, 1.0, 0.0), (1.2000000476837158, 0.20000000298023224, 0.0, 1.0))
        custom token[] xformOpOrder = ["xformOp:transform"]
    }
    def Cube "Cube_62"
    {
        custom double size = 0.10000000149011612
        custom matrix4d xformOp:transform = ((1.0, 0.0, 0.0, 0.0), (0.0, 1.0, 0.0, 0.0), (0.0, 0.0, 1.0, 0.0), (1.2000000476837158, 0.4000000059604645, 0.0, 1.0))
        custom token[] xformOpOrder = ["xformOp:transform"]
    }
    def Cube "Cube_63"
    {
        custom double size = 0.10000000149011612
        custom matrix4d xformOp:transform = ((1.0, 0.0, 0.0, 0.0), (0.0, 1.0, 0.0, 0.0), (0.0, 0.0, 1.0, 0.0), (1.2000000476837158, 0.6000000238418579, 0.0, 1.0))
        custom token[] xformOpOrder = ["xformOp:transform"]
    }
    def Cube "Cube_64"
    {
        custom double size = 0.10000000149011612
        custom matrix4d xformOp:transform = ((1.0, 0.0, 0.0, 0.0), (0.0, 1.0, 0.0, 0.0), (0.0, 0.0, 1.0, 0.0), (1.2000000476837158, 0.800000011920929, 0.0, 1.0))
        custom token[] xformOpOrder = ["xformOp:transform"]
    }
    def Cube "Cube_65"
    {
        custom double size = 0.10000000149011612
        custom matrix4d xformOp:transform = ((1.0, 0.0, 0.0, 0.0), (0.0, 1.0, 0.0, 0.0), (0.0, 0.0, 1.0, 0.0), (1.2000000476837158, 1.0, 0.0, 1.0))
        custom token[] xformOpOrder = ["xformOp:transform"]
    }
    def Cube "Cube_66"
    {
        custom double size = 0.10000000149011612
        custom matrix4d xformOp:transform = ((1.0, 0.0, 0.0, 0.0), (0.0, 1.0, 0.0, 0.0), (0.0, 0.0, 1.0, 0.0), (1.2000000476837158, 1.2000000476837158, 0.0, 1.0))
        custom token[] xformOpOrder = ["xformOp:transform"]
    }
    def Cube "Cube_67"
    {
        custom double size = 0.10000000149011612
        custom matrix4d xformOp:transform = ((1.0, 0.0, 0.0, 0.0), (0.0, 1.0, 0.0, 0.0), (0.0, 0.0, 1.0, 0.0), (1.2000000476837158, 1.399999976158142, 0.0, 1.0))
        custom token[] xformOpOrder = ["xformOp:transform"]
    }
    def Cube "Cube_68"
    {
        custom double size = 0.10000000149011612
        custom matrix4d xformOp:transform = ((1.0, 0.0, 0.0, 0.0), (0.0, 1.0, 0.0, 0.0), (0.0, 0.0, 1.0, 0.0), (1.2000000476837158, 1.600000023841858, 0.0, 1.0))
        custom token[] xformOpOrder = ["xformOp:transform"]
    }
    def Cube "Cube_69"
    {
        custom double size = 0.10000000149011612
        custom matrix4d xformOp:transform = ((1.0, 0.0, 0.0, 0.0), (0.0, 1.0, 0.0, 0.0), (0.0, 0.0, 1.0, 0.0), (1.2000000476837158, 1.8000000715255737, 0.0, 1.0))
        custom token[] xformOpOrder = ["xformOp:transform"]
    }
    def Cube "Cube_70"
    {
        custom double size = 0.10000000149011612
        custom matrix4d xformOp:transform = ((1.0, 0.0, 0.0, 0.0), (0.0, 1.0, 0.0, 0.0), (0.0, 0.0, 1.0, 0.0), (1.399999976158142, 0.0, 0.0, 1.0))
        custom token[] xformOpOrder = ["xformOp:transform"]
    }
    def Cube "Cube_71"
    {
        custom double size = 0.10000000149011612
        custom matrix4d xformOp:transform = ((1.0, 0.0, 0.0, 0.0), (0.0, 1.0, 0.0, 0.0), (0.0, 0.0, 1.0, 0.0), (1.399999976158142, 0.20000000298023224, 0.0, 1.0))
        custom token[] xformOpOrder = ["xformOp:transform"]
    }
    def Cube "Cube_72"
    {
        custom double size = 0.10000000149011612
        custom matrix4d xformOp:transform = ((1.0, 0.0, 0.0, 0.0), (0.0, 1.0, 0.0, 0.0), (0.0, 0.0, 1.0, 0.0), (1.399999976158142, 0.4000000059604645, 0.0, 1.0))
        custom token[] xformOpOrder = ["xformOp:transform"]
    }
    def Cube "Cube_73"
    {
        custom double size = 0.10000000149011612
        custom matrix4d xformOp:transform = ((1.0, 0.0, 0.0, 0.0), (0.0, 1.0, 0.0, 0.0), (0.0, 0.0, 1.0, 0.0), (1.399999976158142, 0.6000000238418579, 0.0, 1.0))
        custom token[] xformOpOrder = ["xformOp:transform"]
    }
    def Cube "Cube_74"
    {
        custom double size = 0.10000000149011612
        custom matrix4d xformOp:transform = ((1.0, 0.0, 0.0, 0.0), (0.0, 1.0, 0.0, 0.0), (0.0, 0.0, 1.0, 0.0), (1.399999976158142, 0.800000011920929, 0.0, 1.0))
        custom token[] xformOpOrder = ["xformOp:transform"]
    }
    def Cube "Cube_75"
    {
        custom double size = 0.10000000149011612
        custom matrix4d xformOp:transform = ((1.0, 0.0, 0.0, 0.0), (0.0, 1.0, 0.0, 0.0), (0.0, 0.0, 1.0, 0.0), (1.399999976158142, 1.0, 0.0, 1.0))
        custom token[] xformOpOrder = ["xformOp:transform"]
    }
    def Cube "Cube_76"
    {
        custom double size = 0.10000000149011612
        custom matrix4d xformOp:transform = ((1.0, 0.0, 0.0, 0.0), (0.0, 1.0, 0.0, 0.0), (0.0, 0.0, 1.0, 0.0), (1.399999976158142, 1.2000000476837158, 0.0, 1.0))
        custom token[] xformOpOrder = ["xformOp:transform"]
    }
    def Cube "Cube_77"
    {
        custom double size = 0.10000000149011612
        custom matrix4d xformOp:transform = ((1.0, 0.0, 0.0, 0.0), (0.0, 1.0, 0.0, 0.0), (0.0, 0.0, 1.0, 0.0), (1.399999976158142, 1.399999976158142, 0.0, 1.0))
        custom token[] xformOpOrder = ["xformOp:transform"]
    }
    def Cube "Cube_78"
    {
        custom double size = 0.10000000149011612
        custom matrix4d xformOp:transform = ((1.0, 0.0, 0.0, 0.0), (0.0, 1.0, 0.0, 0.0), (0.0, 0.0, 1.0, 0.0), (1.399999976158142, 1.600000023841858, 0.0, 1.0))
        custom token[] xformOpOrder = ["xformOp:transform"]
    }
    def Cube "Cube_79"
    {
        custom double size = 0.10000000149011612
        custom matrix4d xformOp:transform = ((1.0, 0.0, 0.0, 0.0), (0.0, 1.0, 0.0, 0.0), (0.0, 0.0, 1.0, 0.0), (1.399999976158142, 1.8000000715255737, 0.0, 1.0))
        custom token[] xformOpOrder = ["xformOp:transform"]
    }
    def Cube "Cube_80"
    {
        custom double size = 0.10000000149011612
        custom matrix4d xformOp:transform = ((1.0, 0.0, 0.0, 0.0), (0.0, 1.0, 0.0, 0.0), (0.0, 0.0, 1.0, 0.0), (1.600000023841858, 0.0, 0.0, 1.0))
        custom token[] xformOpOrder = ["xformOp:transform"]
    }
    def Cube "Cube_81"
    {
        custom double size = 0.10000000149011612
        custom matrix4d xformOp:transform = ((1.0, 0.0, 0.0, 0.0), (0.0, 1.0, 0.0, 0.0), (0.0, 0.0, 1.0, 0.0), (1.600000023841858, 0.20000000298023224, 0.0, 1.0))
        custom token[] xformOpOrder = ["xformOp:transform"]
    }
    def Cube "Cube_82"
    {
        custom double size = 0.10000000149011612
        custom matrix4d xformOp:transform = ((1.0, 0.0, 0.0, 0.0), (0.0, 1.0, 0.0, 0.0), (0.0, 0.0, 1.0, 0.0), (1.600000023841858, 0.4000000059604645, 0.0, 1.0))
        custom token[] xformOpOrder = ["xformOp:transform"]
    }
    def Cube "Cube_83"
    {
        custom double size = 0.10000000149011612
        custom matrix4d xformOp:transform = ((1.0, 0.0, 0.0, 0.0), (0.0, 1.0, 0.0, 0.0), (0.0, 0.0, 1.0, 0.0), (1.600000023841858, 0.6000000238418579, 0.0, 1.0))
        custom token[] xformOpOrder = ["xformOp:transform"]
    }
    def Cube "Cube_84"
    {
        custom double size = 0.10000000149011612
        custom matrix4d xformOp:transform = ((1.0, 0.0, 0.0, 0.0), (0.0, 1.0, 0.0, 0.0), (0.0, 0.0, 1.0, 0.0), (1.600000023841858, 0.800000011920929, 0.0, 1.0))
        custom token[] xformOpOrder = ["xformOp:transform"]
    }
    def Cube "Cube_85"
    {
        custom double size = 0.10000000149011612
        custom matrix4d xformOp:transform = ((1.0, 0.0, 0.0, 0.0), (0.0, 1.0, 0.0, 0.0), (0.0, 0.0, 1.0, 0.0), (1.600000023841858, 1.0, 0.0, 1.0))
        custom token[] xformOpOrder = ["xformOp:transform"]
    }
    def Cube "Cube_86"
    {
        custom double size = 0.10000000149011612
        custom matrix4d xformOp:transform = ((1.0, 0.0, 0.0, 0.0), (0.0, 1.0, 0.0, 0.0), (0.0, 0.0, 1.0, 0.0), (1.600000023841858, 1.2000000476837158, 0.0, 1.0))
        custom token[] xformOpOrder = ["xformOp:transform"]
    }
    def Cube "Cube_87"
    {
        custom double size = 0.10000000149011612
        custom matrix4d xformOp:transform = ((1.0, 0.0, 0.0, 0.0), (0.0, 1.0, 0.0, 0.0), (0.0, 0.0, 1.0, 0.0), (1.600000023841858, 1.399999976158142, 0.0, 1.0))
        custom token[] xformOpOrder = ["xformOp:transform"]
    }
    def Cube "Cube_88"
    {
        custom double size = 0.10000000149011612
        custom matrix4d xformOp:transform = ((1.0, 0.0, 0.0, 0.0), (0.0, 1.0, 0.0, 0.0), (0.0, 0.0, 1.0, 0.0), (1.600000023841858, 1.600000023841858, 0.0, 1.0))
        custom token[] xformOpOrder = ["xformOp:transform"]
    }
    def Cube "Cube_89"
    {
        custom double size = 0.10000000149011612
        custom matrix4d xformOp:transform = ((1.0, 0.0, 0.0, 0.0), (0.0, 1.0, 0.0, 0.0), (0.0, 0.0, 1.0, 0.0), (1.600000023841858, 1.8000000715255737, 0.0, 1.0))
        custom token[] xformOpOrder = ["xformOp:transform"]
    }
    def Cube "Cube_90"
    {
        custom double size = 0.10000000149011612
        custom matrix4d xformOp:transform = ((1.0, 0.0, 0.0, 0.0), (0.0, 1.0, 0.0, 0.0), (0.0, 0.0, 1.0, 0.0), (1.8000000715255737, 0.0, 0.0, 1.0))
        custom token[] xformOpOrder = ["xformOp:transform"]
    }
    def Cube "Cube_91"
    {
        custom double size = 0.10000000149011612
        custom matrix4d xformOp:transform = ((1.0, 0.0, 0.0, 0.0), (0.0, 1.0, 0.0, 0.0), (0.0, 0.0, 1.0, 0.0), (1.8000000715255737, 0.20000000298023224, 0.0, 1.0))
        custom token[] xformOpOrder = ["xformOp:transform"]
    }
    def Cube "Cube_92"
    {
        custom double size = 0.10000000149011612
        custom matrix4d xformOp:transform = ((1.0, 0.0, 0.0, 0.0), (0.0, 1.0, 0.0, 0.0), (0.0, 0.0, 1.0, 0.0), (1.8000000715255737, 0.4000000059604645, 0.0, 1.0))
        custom token[] xformOpOrder = ["xformOp:transform"]
    }
    def Cube "Cube_93"
    {
        custom double size = 0.10000000149011612
        custom matrix4d xformOp:transform = ((1.0, 0.0, 0.0, 0.0), (0.0, 1.0, 0.0, 0.0), (0.0, 0.0, 1.0, 0.0), (1.8000000715255737, 0.6000000238418579, 0.0, 1.0))
        custom token[] xformOpOrder = ["xformOp:transform"]
    }
    def Cube "Cube_94"
    {
        custom double size = 0.10000000149011612
        custom matrix4d xformOp:transform = ((1.0, 0.0, 0.0, 0.0), (0.0, 1.0, 0.0, 0.0), (0.0, 0.0, 1.0, 0.0), (1.8000000715255737, 0.800000011920929, 0.0, 1.0))
        custom token[] xformOpOrder = ["xformOp:transform"]
    }
    def Cube "Cube_95"
    {
        custom double size = 0.10000000149011612
        custom matrix4d xformOp:transform = ((1.0, 0.0, 0.0, 0.0), (0.0, 1.0, 0.0, 0.0), (0.0, 0.0, 1.0, 0.0), (1.8000000715255737, 1.0, 0.0, 1.0))
        custom token[] xformOpOrder = ["xformOp:transform"]
    }
    def Cube "Cube_96"
    {
        custom double size = 0.10000000149011612
        custom matrix4d xformOp:transform = ((1.0, 0.0, 0.0, 0.0), (0.0, 1.0, 0.0, 0.0), (0.0, 0.0, 1.0, 0.0), (1.8000000715255737, 1.2000000476837158, 0.0, 1.0))
        custom token[] xformOpOrder = ["xformOp:transform"]
    }
    def Cube "Cube_97"
    {
        custom double size = 0.10000000149011612
        custom matrix4d xformOp:transform = ((1.0, 0.0, 0.0, 0.0), (0.0, 1.0, 0.0, 0.0), (0.0, 0.0, 1.0, 0.0), (1.8000000715255737, 1.399999976158142, 0.0, 1.0))
        custom token[] xformOpOrder = ["xformOp:transform"]
    }
    def Cube "Cube_98"
    {
        custom double size = 0.10000000149011612
        custom matrix4d xformOp:transform = ((1.0, 0.0, 0.0, 0.0), (0.0, 1.0, 0.0, 0.0), (0.0, 0.0, 1.0, 0.0), (1.8000000715255737, 1.600000023841858, 0.0, 1.0))
        custom token[] xformOpOrder = ["xformOp:transform"]
    }
    def Cube "Cube_99"
    {
        custom double size = 0.10000000149011612
        custom matrix4d xformOp:transform = ((1.0, 0.0, 0.0, 0.0), (0.0, 1.0, 0.0, 0.0), (0.0, 0.0, 1.0, 0.0), (1.8000000715255737, 1.8000000715255737, 0.0, 1.0))
        custom token[] xformOpOrder = ["xformOp:transform"]
    }
}
